<svg xmlns="http://www.w3.org/2000/svg" viewBox="0 0 1920 1080"><title>hero-placeholder</title><rect width="1920" height="1080" style="fill:#f0f0f0"/><path d="M960.34,490.12a40.11,40.11,0,1,0,40.1,40.1A40.1,40.1,0,0,0,960.34,490.12Zm128.09-50.92h-68l-5.77-18c-2.82-9.18-7.68-10.52-17.54-10.52H923.52c-9.86,0-14.72,1.34-17.54,10.52l-5.77,18h-68a17.85,17.85,0,0,0-17.85,17.85v140.1A17.85,17.85,0,0,0,832.24,615h256.19a17.85,17.85,0,0,0,17.85-17.85V457.05A17.85,17.85,0,0,0,1088.43,439.2ZM960.34,589.57a59.35,59.35,0,1,1,59.34-59.35A59.35,59.35,0,0,1,960.34,589.57Z" style="fill:#707070"/></svg>