<svg fill="#F0F0F0" style="background: #2c3e50" xmlns:dc="http://purl.org/dc/elements/1.1/" xmlns:cc="http://creativecommons.org/ns#" xmlns:rdf="http://www.w3.org/1999/02/22-rdf-syntax-ns#" xmlns:svg="http://www.w3.org/2000/svg" xmlns="http://www.w3.org/2000/svg" xmlns:sodipodi="http://sodipodi.sourceforge.net/DTD/sodipodi-0.dtd" xmlns:inkscape="http://www.inkscape.org/namespaces/inkscape" version="1.1" x="0px" y="0px" viewBox="0 0 100 100"><g transform="translate(0,-952.36218)"><path style="text-indent:0;text-transform:none;direction:ltr;block-progression:tb;baseline-shift:baseline;color:#000000;enable-background:accumulate;" d="m 49.983654,958.34586 c -24.284734,0 -43.9836375,19.7316 -43.9836375,44.01634 0,24.2847 19.6989035,44.0163 43.9836375,44.0163 24.28463,0 44.016329,-19.7316 44.016329,-44.0163 0,-24.28474 -19.7317,-44.01634 -44.01633,-44.01634 z m 0,4.19196 c 22.01922,0 39.824269,17.80516 39.824269,39.82438 0,11.0751 -4.478129,21.0788 -11.757339,28.2962 -1.511081,-11.168 -9.459837,-20.301 -19.977586,-23.4492 7.27681,-3.0231 12.412295,-10.18237 12.412295,-18.5039 0,-11.0452 -9.028268,-20.01038 -20.141369,-20.01038 -11.1059,0 -20.141469,8.96518 -20.141469,20.01038 0,8.21694 4.989296,15.2859 12.11762,18.3729 -10.706533,3.0299 -18.825375,12.257 -20.37065,23.5475 -7.270011,-7.2162 -11.790045,-17.1964 -11.790045,-28.2635 0,-22.01922 17.805058,-39.82438 39.824274,-39.82438 z" fill="#F0F0F0" fill-opacity="1" fill-rule="evenodd" stroke="none" marker="none" visibility="visible" display="inline" overflow="visible"></path></g></svg>