<svg fill="#f0f0f0" xmlns="http://www.w3.org/2000/svg" xmlns:xlink="http://www.w3.org/1999/xlink" version="1.1" x="0px" y="0px" viewBox="0 0 98 98" style="enable-background:new 0 0 98 98;" xml:space="preserve"><g><g><path d="M12.5,89.7c0.8,0,1.6-0.2,2.4-0.6l23.4-10.4c2-0.9,4.7-2.7,6.3-4.3l43.2-43.2c1.2-1.2,1.9-2.9,1.9-4.6    S89,23.2,87.8,22L76.1,10.3c-1.2-1.2-2.9-1.9-4.6-1.9s-3.4,0.7-4.6,1.9L22,55.1c-1.6,1.6-3.4,4.3-4.3,6.4L8.8,83.2    c-1,2.4-0.3,4,0.2,4.7C9.8,89,11,89.7,12.5,89.7z M71.4,14.9l11.7,11.7L78,31.8L66.3,20.1L71.4,14.9z M23.8,63.9    c0.1-0.2,0.2-0.5,0.4-0.8l10.1,10.1l-17.6,7.8L23.8,63.9z"></path></g></g></svg>