<svg fill="#808080" xmlns="http://www.w3.org/2000/svg" xmlns:xlink="http://www.w3.org/1999/xlink" version="1.1" x="0px" y="0px" viewBox="0 0 100 100" enable-background="new 0 0 100 100" xml:space="preserve"><g><path fill="#808080" d="M90.183,48.691c0,0-17.796-28.119-40.436-28.119c-22.643,0-40.432,28.119-40.432,28.119   c-0.358,0.56-0.358,1.349,0,1.909c0,0,17.788,28.125,40.432,28.125c22.641,0,40.436-28.119,40.436-28.119   C90.543,50.045,90.543,49.252,90.183,48.691z M49.747,69.933c-11.188,0-20.285-9.099-20.285-20.284   c0-11.188,9.097-20.284,20.285-20.284c11.19,0,20.283,9.096,20.283,20.284C70.03,60.834,60.938,69.933,49.747,69.933z"></path><path fill="#808080" d="M49.747,35.337c-7.895,0-14.312,6.417-14.312,14.312c0,7.892,6.418,14.312,14.312,14.312   c7.896,0,14.311-6.42,14.311-14.312C64.058,41.754,57.643,35.337,49.747,35.337z"></path></g></svg>