<svg fill="#2c3e50" xmlns="http://www.w3.org/2000/svg" xmlns:xlink="http://www.w3.org/1999/xlink" xml:space="preserve" version="1.1" style="shape-rendering:geometricPrecision;text-rendering:geometricPrecision;image-rendering:optimizeQuality;" viewBox="0 0 234 267" x="0px" y="0px" fill-rule="evenodd" clip-rule="evenodd"><defs><style type="text/css">

    .fil0 {fill:#2c3e50}

  </style></defs><g><path class="fil0" d="M16 228c-21,0 -21,-31 0,-31 17,0 18,-60 18,-81 0,-50 30,-79 64,-86 -6,-14 4,-30 19,-30 15,0 25,16 19,30 34,7 64,36 64,86 0,21 1,81 18,81 21,0 21,31 0,31l-202 0z"></path><path class="fil0" d="M135 235c8,14 -2,32 -18,32 -16,0 -26,-18 -18,-32l36 0z"></path></g></svg>