<svg fill="#F0F0F0" xmlns="http://www.w3.org/2000/svg" xmlns:xlink="http://www.w3.org/1999/xlink" version="1.1" x="0px" y="0px" viewBox="0 0 100 100" enable-background="new 0 0 100 100" xml:space="preserve"><g><path d="M50,83.773c-18.623,0-33.774-15.15-33.774-33.773c0-18.623,15.151-33.773,33.774-33.773c7.662,0,14.887,2.502,20.893,7.236   c0.65,0.513,0.762,1.456,0.249,2.107c-0.514,0.65-1.456,0.762-2.106,0.25C63.564,21.506,56.982,19.227,50,19.227   c-16.969,0-30.774,13.805-30.774,30.773S33.031,80.773,50,80.773S80.774,66.969,80.774,50c0-5.667-1.554-11.206-4.492-16.018   c-0.432-0.707-0.209-1.63,0.498-2.062c0.706-0.431,1.63-0.208,2.063,0.499c3.227,5.283,4.932,11.362,4.932,17.582   C83.774,68.623,68.623,83.773,50,83.773z"></path></g><g><path d="M62.429,63.929c-0.384,0-0.768-0.146-1.061-0.439L36.511,38.632c-0.586-0.585-0.586-1.536,0-2.121   c0.586-0.586,1.535-0.586,2.121,0l24.857,24.857c0.586,0.586,0.586,1.535,0,2.121C63.196,63.782,62.813,63.929,62.429,63.929z"></path></g><g><path d="M37.572,63.929c-0.384,0-0.768-0.146-1.061-0.439c-0.586-0.586-0.586-1.535,0-2.121l24.857-24.857   c0.586-0.586,1.535-0.586,2.121,0c0.586,0.585,0.586,1.536,0,2.121L38.632,63.489C38.339,63.782,37.956,63.929,37.572,63.929z"></path></g></svg>