<svg fill="#808080" xmlns="http://www.w3.org/2000/svg" xmlns:xlink="http://www.w3.org/1999/xlink" version="1.1" x="0px" y="0px" viewBox="0 0 62 62" enable-background="new 0 0 62 62" xml:space="preserve"><g><path d="M46.4599609,7v18.3399658H26.9699707c-1.6500244,0-3,1.3500366-3,3v8.0900269H20.5l-7.8700562,7.8599854   c-0.1900024,0.1900024-0.4499512,0.289978-0.7099609,0.289978c-0.1199951,0-0.25-0.0199585-0.3800049-0.0699463   c-0.3699951-0.1600342-0.6199951-0.5200195-0.6199951-0.9300537v-7.1499634H7c-0.5500488,0-1-0.4500122-1-1V7   c0-0.5500488,0.4499512-1,1-1h38.4599609C46.0199585,6,46.4599609,6.4499512,46.4599609,7z"></path><path d="M55,27.3399658H26.9699707c-0.5599976,0-1,0.4500122-1,1v20.7200317c0,0.5499878,0.4400024,1,1,1h18.0800171   l5.6599731,5.6499634C50.8999634,55.8999634,51.1599731,56,51.4199829,56c0.1300049,0,0.2600098-0.0200195,0.3800049-0.0700073   C52.1699829,55.7699585,52.4199829,55.4099731,52.4199829,55v-4.9400024H55c0.5599976,0,1-0.4500122,1-1V28.3399658   C56,27.789978,55.5599976,27.3399658,55,27.3399658z"></path></g></svg>